# Created by Kenney (www.kenney.nl)

mtllib structure-corner-outer.mtl

g structure-corner-outer

v 1.5 3 0.5 1 1 1
v 1.5 3 1.5 1 1 1
v 0.5 3 0.5 1 1 1
v 0.5 3 1.5 1 1 1
v 0.6 2.7 0.6 1 1 1
v 1.5 2.7 0.6 1 1 1
v 0.6 2.8 0.6 1 1 1
v 1.5 2.8 0.6 1 1 1
v 0.6 2.8 1.5 1 1 1
v 0.6 2.7 1.5 1 1 1
v 0.5 2.8 1.5 1 1 1
v 0.5 2.8 0.5 1 1 1
v 1.5 2.8 0.5 1 1 1
v 0.5 4.060752E-16 0.5 1 1 1
v 1.5 4.060752E-16 0.5 1 1 1
v 0.5 0.6 0.5 1 1 1
v 1.5 0.6 0.5 1 1 1
v 0.6 0.9 0.6 1 1 1
v 1.5 0.9 0.6 1 1 1
v 0.5 5.86553E-16 1.5 1 1 1
v 0.5 0.6 1.5 1 1 1
v 0.6 0.9 1.5 1 1 1
v 0.6 1.5 0.6 1 1 1
v 1.5 1.5 0.6 1 1 1
v 0.6 1.6 0.6 1 1 1
v 1.5 1.6 0.6 1 1 1
v 0.6 1.6 1.5 1 1 1
v 0.6 1.5 1.5 1 1 1
v 0.7 1.2 0.7 1 1 1
v 1.5 1.2 0.7 1 1 1
v 0.7 1.5 0.7 1 1 1
v 1.5 1.5 0.7 1 1 1
v 0.7 1.5 1.5 1 1 1
v 0.7 1.2 1.5 1 1 1
v 1.5 1.2 0.6 1 1 1
v 0.6 1.2 0.6 1 1 1
v 0.6 1.2 1.5 1 1 1
v 0.6 1.6 0.6 1 1 1
v 1.5 1.6 0.6 1 1 1
v 0.6 2.7 0.6 1 1 1
v 1.5 2.7 0.6 1 1 1
v 0.6 1.6 1.5 1 1 1
v 0.6 2.7 1.5 1 1 1
v 1.5 4.511946E-17 -0.5 1 1 1
v -0.5 4.511946E-17 -0.5 1 1 1
v -0.5 4.060752E-16 1.5 1 1 1
v 0.5 5.865531E-16 1.5 1 1 1

vn 0 1 0
vn 0 0 -1
vn -1 0 0
vn 0 -1 0
vn 0 0.142857 -0.9897433
vn 0 0.1601822 -0.9870875
vn 0 0.1743933 -0.9846761
vn -0.9897433 0.142857 0
vn -0.9870875 0.1601822 0
vn -0.9846761 0.1743933 0

vt 0.21875 0.225
vt 0.21875 0.205
vt 0.21875 0.2116666
vt 0.21875 0.025
vt 0.21875 0.065
vt 0.21875 0.085
vt 0.21875 0.125
vt 0.21875 0.1316667
vt 0.21875 0.355
vt 0.21875 0.375
vt 0.34375 0.085
vt 0.34375 0.105
vt 0.34375 0.025
vt 0.34375 0.225
vt 0.28125 0.125

usemtl colormap

f 3/1/1 2/1/1 1/1/1
f 2/1/1 3/1/1 4/1/1
f 7/3/2 6/2/2 5/2/2
f 6/2/2 7/3/2 8/3/2
f 5/2/3 9/3/3 7/3/3
f 9/3/3 5/2/3 10/2/3
f 11/3/4 7/3/4 9/3/4
f 12/3/4 7/3/4 11/3/4
f 13/3/4 7/3/4 12/3/4
f 7/3/4 13/3/4 8/3/4
f 16/5/5 15/4/2 14/4/2
f 15/4/2 16/5/5 17/5/6
f 18/6/7 17/5/6 16/5/5
f 17/5/6 18/6/7 19/6/6
f 20/4/3 16/5/8 14/4/3
f 16/5/8 20/4/3 21/5/9
f 21/5/9 18/6/10 16/5/8
f 18/6/10 21/5/9 22/6/9
f 11/3/3 3/1/3 12/3/3
f 3/1/3 11/3/3 4/1/3
f 3/1/2 13/3/2 12/3/2
f 13/3/2 3/1/2 1/1/2
f 25/8/2 24/7/2 23/7/2
f 24/7/2 25/8/2 26/8/2
f 23/7/3 27/8/3 25/8/3
f 27/8/3 23/7/3 28/7/3
f 31/10/2 30/9/2 29/9/2
f 30/9/2 31/10/2 32/10/2
f 28/10/4 31/10/4 33/10/4
f 23/10/4 31/10/4 28/10/4
f 24/10/4 31/10/4 23/10/4
f 31/10/4 24/10/4 32/10/4
f 34/9/3 31/10/3 29/9/3
f 31/10/3 34/9/3 33/10/3
f 36/9/1 30/9/1 35/9/1
f 30/9/1 36/9/1 29/9/1
f 29/9/1 36/9/1 34/9/1
f 34/9/1 36/9/1 37/9/1
f 36/12/2 19/11/6 18/11/7
f 19/11/6 36/12/2 35/12/2
f 22/11/9 36/12/3 18/11/10
f 36/12/3 22/11/9 37/12/3
f 40/14/2 39/13/2 38/13/2
f 39/13/2 40/14/2 41/14/2
f 42/13/3 40/14/3 38/13/3
f 40/14/3 42/13/3 43/14/3
f 45/15/1 15/15/1 44/15/1
f 15/15/1 45/15/1 14/15/1
f 46/15/1 14/15/1 45/15/1
f 14/15/1 46/15/1 47/15/1

g structure-corner-outer




usemtl colormap

f 3/1/1 2/1/1 1/1/1
f 2/1/1 3/1/1 4/1/1
f 7/3/2 6/2/2 5/2/2
f 6/2/2 7/3/2 8/3/2
f 5/2/3 9/3/3 7/3/3
f 9/3/3 5/2/3 10/2/3
f 11/3/4 7/3/4 9/3/4
f 12/3/4 7/3/4 11/3/4
f 13/3/4 7/3/4 12/3/4
f 7/3/4 13/3/4 8/3/4
f 16/5/5 15/4/2 14/4/2
f 15/4/2 16/5/5 17/5/6
f 18/6/7 17/5/6 16/5/5
f 17/5/6 18/6/7 19/6/6
f 20/4/3 16/5/8 14/4/3
f 16/5/8 20/4/3 21/5/9
f 21/5/9 18/6/10 16/5/8
f 18/6/10 21/5/9 22/6/9
f 11/3/3 3/1/3 12/3/3
f 3/1/3 11/3/3 4/1/3
f 3/1/2 13/3/2 12/3/2
f 13/3/2 3/1/2 1/1/2
f 25/8/2 24/7/2 23/7/2
f 24/7/2 25/8/2 26/8/2
f 23/7/3 27/8/3 25/8/3
f 27/8/3 23/7/3 28/7/3
f 31/10/2 30/9/2 29/9/2
f 30/9/2 31/10/2 32/10/2
f 28/10/4 31/10/4 33/10/4
f 23/10/4 31/10/4 28/10/4
f 24/10/4 31/10/4 23/10/4
f 31/10/4 24/10/4 32/10/4
f 34/9/3 31/10/3 29/9/3
f 31/10/3 34/9/3 33/10/3
f 36/9/1 30/9/1 35/9/1
f 30/9/1 36/9/1 29/9/1
f 29/9/1 36/9/1 34/9/1
f 34/9/1 36/9/1 37/9/1
f 36/12/2 19/11/6 18/11/7
f 19/11/6 36/12/2 35/12/2
f 22/11/9 36/12/3 18/11/10
f 36/12/3 22/11/9 37/12/3
f 40/14/2 39/13/2 38/13/2
f 39/13/2 40/14/2 41/14/2
f 42/13/3 40/14/3 38/13/3
f 40/14/3 42/13/3 43/14/3
f 45/15/1 15/15/1 44/15/1
f 15/15/1 45/15/1 14/15/1
f 46/15/1 14/15/1 45/15/1
f 14/15/1 46/15/1 47/15/1

